<?xml version="1.0" encoding="UTF-8"?>
<svg version="1.1" xmlns="http://www.w3.org/2000/svg" width="1024" height="1024">
<path d="M0 0 C337.92 0 675.84 0 1024 0 C1024 337.92 1024 675.84 1024 1024 C686.08 1024 348.16 1024 0 1024 C0 686.08 0 348.16 0 0 Z " fill="#CECFD1" transform="translate(0,0)"/>
<path d="M0 0 C1.46398727 0.00040787 1.46398727 0.00040787 2.95755005 0.00082397 C17.98489588 0.02007184 32.81101402 0.43544895 47.75 2.1875 C48.57097168 2.27338379 49.39194336 2.35926758 50.23779297 2.44775391 C62.53023787 3.75086595 74.52196666 6.33700702 86.5625 9.0625 C87.66328888 9.30978851 87.66328888 9.30978851 88.78631592 9.56207275 C131.73750664 19.27740914 173.44959676 37.25266278 209.75 62.1875 C210.47832031 62.68668945 211.20664062 63.18587891 211.95703125 63.70019531 C220.46764576 69.56134823 228.82147612 75.55084423 236.75 82.1875 C237.76320313 83.02796875 238.77640625 83.8684375 239.8203125 84.734375 C256.47170408 98.62255582 273.33956682 113.44121751 286.703125 130.5859375 C288.58581636 132.97882385 290.55597353 135.26763733 292.56616211 137.5534668 C347.12522574 200.07735723 375.27454336 286.98188954 375.125 369.125 C375.12418427 370.82136597 375.12418427 370.82136597 375.12335205 372.55200195 C375.0568933 402.80827727 372.0437779 431.78307979 364.75 461.1875 C364.49379883 462.25935547 364.23759766 463.33121094 363.97363281 464.43554688 C347.62084236 532.43196791 308.25602903 600.12153861 255.078125 646.16796875 C252.55037746 648.3606625 250.1272595 650.64748622 247.6875 652.9375 C241.08274069 658.94606101 233.9940631 664.28198382 226.84179688 669.61767578 C224.94794683 671.03894746 223.07313597 672.48120441 221.203125 673.93359375 C186.86432802 700.28798598 146.04984864 718.02165311 104.75 730.1875 C103.75226563 730.50203125 102.75453125 730.8165625 101.7265625 731.140625 C83.16131282 736.80459948 63.37664154 740.40674168 44.0625 742.25 C42.92651367 742.36698242 42.92651367 742.36698242 41.76757812 742.48632812 C27.71632342 743.86748314 13.61475726 744.45368041 -0.5 744.5 C-1.67189377 744.50392761 -1.67189377 744.50392761 -2.86746216 744.50793457 C-28.45020684 744.51694632 -54.25120954 741.64218308 -79.25 736.1875 C-79.92546875 736.04376953 -80.6009375 735.90003906 -81.296875 735.75195312 C-107.36408307 730.09536897 -133.08770775 720.41398096 -157.25 709.1875 C-157.86020996 708.90503418 -158.47041992 708.62256836 -159.09912109 708.33154297 C-179.66812882 698.69575814 -198.98885861 686.64945304 -217.25 673.1875 C-217.87970703 672.72359863 -218.50941406 672.25969727 -219.15820312 671.78173828 C-226.9067319 666.03040782 -234.33541143 659.89803386 -241.63110352 653.58544922 C-242.73500317 652.63220998 -243.84516796 651.6861897 -244.96069336 650.74658203 C-251.08891216 645.51488263 -256.77388477 639.84973007 -262.4675293 634.15527344 C-264.17543056 632.44955402 -265.89118045 630.75200973 -267.60742188 629.0546875 C-274.27488563 622.4217446 -280.4420501 615.60061129 -286.25 608.1875 C-287.39926224 606.76263569 -288.54897069 605.33813111 -289.69921875 603.9140625 C-315.08007536 571.95669596 -335.96244986 535.84092046 -349.25 497.1875 C-349.58338379 496.22166992 -349.91676758 495.25583984 -350.26025391 494.26074219 C-359.21776531 468.00611233 -364.63683493 441.62012191 -368.25 414.1875 C-368.45133545 412.7025 -368.45133545 412.7025 -368.65673828 411.1875 C-370.31952013 398.46523099 -370.42304976 385.74740792 -370.4375 372.9375 C-370.43867828 372.14147369 -370.43985657 371.34544739 -370.44107056 370.52529907 C-370.43829147 353.96601354 -369.69101178 337.55909094 -367.5625 321.125 C-367.4779657 320.46862549 -367.3934314 319.81225098 -367.30633545 319.13598633 C-365.70750659 306.91072781 -363.18081784 295.03190655 -360.01464844 283.11669922 C-359.26199896 280.23346537 -358.56524253 277.34198148 -357.8828125 274.44140625 C-354.29885269 259.49073474 -349.09372294 245.39251088 -343.25 231.1875 C-342.84233398 230.18654297 -342.43466797 229.18558594 -342.01464844 228.15429688 C-331.50869722 202.52961198 -317.93834547 178.04583175 -301.43212891 155.78271484 C-300.28339812 154.23256883 -299.14735446 152.67304617 -298.01171875 151.11328125 C-290.39398411 140.76236296 -282.0549773 131.0504137 -273.3984375 121.55859375 C-272.00976937 120.0260091 -270.63853069 118.47736731 -269.2890625 116.91015625 C-258.81266961 104.84825562 -246.77861442 94.06549078 -234.25 84.1875 C-233.14813659 83.28450457 -232.04797922 82.37942477 -230.94921875 81.47265625 C-166.3250937 28.41163674 -83.37028915 -0.08708504 0 0 Z " fill="#FDFDFD" transform="translate(509.25,140.8125)"/>
<path d="M0 0 C1.0115918 0.00757324 2.02318359 0.01514648 3.06542969 0.02294922 C18.93905896 0.37045437 32.78519209 5.7508103 44.39453125 16.76953125 C56.34000983 29.95008354 61.88342776 44.97517315 61.16015625 62.734375 C60.16752284 78.40491374 53.42893422 92.81131919 41.8125 103.4375 C29.97879888 113.07837471 18.10037232 117.86141239 2.875 117.6875 C1.99183105 117.67855713 1.10866211 117.66961426 0.19873047 117.66040039 C-16.57552649 117.36102628 -29.40825797 111.54515956 -41.1875 99.4375 C-41.73664063 98.92058594 -42.28578125 98.40367187 -42.8515625 97.87109375 C-52.47357605 88.01753442 -57.06061531 73.65936988 -57.5 60.25 C-57.10926843 42.7082088 -51.69326956 27.79877419 -39.04003906 15.52294922 C-27.94608947 5.46236129 -14.96836851 -0.15722028 0 0 Z " fill="#FCE993" transform="translate(259.1875,409.5625)"/>
<path d="M0 0 C12.98022754 9.84706917 22.4637302 22.09462017 25.984375 38.34375 C28.12871057 56.45147259 23.71448591 72.81496455 13.1640625 87.6796875 C5.21535368 97.07361611 -4.93522848 103.3876388 -16.734375 106.71875 C-17.50910156 106.94304687 -18.28382813 107.16734375 -19.08203125 107.3984375 C-34.09339947 111.05730187 -48.44279012 108.91469777 -61.921875 101.53125 C-77.38232528 91.9245586 -87.54276458 77.49117818 -91.734375 59.71875 C-92.00084804 56.7541081 -92.0210529 53.81873561 -91.984375 50.84375 C-91.97688232 50.04437012 -91.96938965 49.24499023 -91.96166992 48.42138672 C-91.86173398 42.95561639 -91.55205373 37.91348448 -89.734375 32.71875 C-89.42757813 31.80222656 -89.12078125 30.88570313 -88.8046875 29.94140625 C-82.80510625 13.86666613 -71.18242812 2.08164901 -55.68359375 -5.0625 C-37.60358752 -12.53397277 -16.47181941 -10.98121294 0 0 Z " fill="#B2EDC8" transform="translate(420.734375,396.28125)"/>
<path d="M0 0 C11.53396853 8.72508731 19.75065977 20.31888008 22.9296875 34.5234375 C24.77339236 47.96418665 24.98875952 61.09206798 18.44140625 73.25390625 C17.98378906 74.14078125 17.52617188 75.02765625 17.0546875 75.94140625 C9.20955352 90.0411539 -2.77759376 99.40018835 -17.9609375 104.59765625 C-34.95614576 108.89118255 -51.15634672 106.9614098 -66.24609375 98.12890625 C-79.97292186 88.79547298 -89.6976511 75.86738503 -93.140625 59.484375 C-95.28973571 42.87395856 -93.28304252 27.88486863 -83.55078125 13.80859375 C-74.28300051 1.92402786 -62.44062141 -6.52476039 -47.55859375 -9.74609375 C-46.43130859 -10.01679688 -46.43130859 -10.01679688 -45.28125 -10.29296875 C-29.11857188 -12.98288362 -13.5039409 -9.21566654 0 0 Z " fill="#A0E5EB" transform="translate(550.55859375,386.74609375)"/>
<path d="M0 0 C11.98809888 9.92182718 19.72996204 25.15235966 21.2578125 40.6171875 C21.82224949 57.21163495 16.80843889 72.21813637 5.6875 84.625 C-6.03477809 97.13446177 -20.21098492 104.08437209 -37.375 104.6875 C-53.12146305 104.28489157 -67.53273637 98.68795542 -78.8828125 87.69140625 C-90.78437246 75.04333267 -97.73391393 59.8835339 -97.30859375 42.3203125 C-95.94125733 25.95568291 -89.34365038 11.83215166 -77.25 0.6875 C-54.39147308 -18.22990159 -23.39644802 -17.42288682 0 0 Z " fill="#FBC3A7" transform="translate(681.0625,401.625)"/>
<path d="M0 0 C17.67141794 -0.94445299 32.02945181 3.39888949 45.8046875 14.93652344 C53.37720266 22.05715252 58.1955316 30.52807995 61.9921875 40.12402344 C62.31316406 40.88972656 62.63414062 41.65542969 62.96484375 42.44433594 C67.92436894 56.05419576 65.31640434 71.16123814 59.70703125 84.08496094 C56.19464254 91.0706031 51.48830474 96.60841642 45.9921875 102.12402344 C45.45078125 102.68863281 44.909375 103.25324219 44.3515625 103.83496094 C39.10388662 108.84410609 29.43316891 115.12402344 21.9921875 115.12402344 C21.96713135 114.29153076 21.9420752 113.45903809 21.91625977 112.60131836 C21.82106056 109.50939511 21.72183078 106.41763492 21.61987305 103.32592773 C21.55531744 101.33099025 21.4954092 99.33590415 21.43554688 97.34082031 C21.39365234 96.08720703 21.35175781 94.83359375 21.30859375 93.54199219 C21.27193604 92.38465576 21.23527832 91.22731934 21.19750977 90.03491211 C21.10890241 87.05967884 21.10890241 87.05967884 19.9921875 84.12402344 C18.24351267 83.0397125 18.24351267 83.0397125 15.9921875 82.12402344 C15.1259375 81.58777344 14.2596875 81.05152344 13.3671875 80.49902344 C8.81446488 78.64421052 4.84625317 78.39906558 -0.0078125 79.12402344 C-3.86326048 81.12059471 -5.60586342 82.52109981 -8.0078125 86.12402344 C-8.6678125 86.12402344 -9.3278125 86.12402344 -10.0078125 86.12402344 C-10.0078125 95.69402344 -10.0078125 105.26402344 -10.0078125 115.12402344 C-21.90407944 113.42455673 -29.62352392 107.46379367 -38.0078125 99.12402344 C-38.56082031 98.60582031 -39.11382813 98.08761719 -39.68359375 97.55371094 C-50.32825943 86.59343522 -54.38266096 71.26479945 -54.30908203 56.49462891 C-53.88882216 39.5986944 -45.42578561 25.12823509 -33.5078125 13.49902344 C-24.03257262 5.63102346 -12.21023331 0.75423134 0 0 Z " fill="#CDC3FB" transform="translate(764.0078125,410.8759765625)"/>
<path d="M0 0 C5.84995135 4.24471608 9.85768696 10.11265149 12 17 C13.53143619 26.89632631 11.71771797 34.79525758 6 43 C0.51243468 49.36189438 -6.12881157 53.47557683 -14.51953125 54.37890625 C-23.94653184 54.67499239 -32.64785631 53.52090478 -40.375 47.75 C-47.80071925 39.97067507 -50.49286542 32.17244351 -50.50195312 21.52392578 C-50.24999924 12.61964646 -46.4813399 7.15453341 -40.1875 1.0625 C-28.67292878 -8.11452669 -12.31694583 -7.31957263 0 0 Z " fill="#554687" transform="translate(503,625)"/>
<path d="M0 0 C2.046875 1.1171875 2.046875 1.1171875 4 2.375 C4.70640625 2.81070313 5.4128125 3.24640625 6.140625 3.6953125 C12.03281648 7.68890895 15.74831846 12.61995539 18 19.375 C18.89514426 29.89011227 19.00048327 38.80053227 12 47.375 C5.2385752 54.38684794 -3.97468397 57.53660649 -13.5625 57.875 C-22.59247186 57.54333042 -29.63690114 54.62272606 -36.2421875 48.4453125 C-42.78878146 40.73487962 -44.67569298 32.21891929 -44 22.375 C-42.78675758 14.28227308 -37.96325664 8.73133391 -32 3.375 C-23.16069525 -2.42627082 -9.9692882 -4.21508501 0 0 Z " fill="#554687" transform="translate(427,621.625)"/>
<path d="M0 0 C2.05454967 -0.00958167 4.10804436 -0.04052735 6.16235352 -0.07226562 C17.97471192 -0.11852058 26.47282062 1.19405124 35.51586914 9.09960938 C41.18606379 14.76980402 42.03032387 19.70840822 42.15649414 27.67773438 C42.04535439 36.5052699 40.39232557 42.59145181 34.21899414 49.11523438 C24.65513657 57.87030907 14.05362888 57.54422575 1.65649414 57.42773438 C0.30883852 57.42627482 -1.03881821 57.4256179 -2.38647461 57.42578125 C-12.20298887 57.38075137 -12.20298887 57.38075137 -13.34350586 56.24023438 C-13.44232179 54.52704492 -13.47149555 52.80978634 -13.47290039 51.09375 C-13.47762863 49.4469928 -13.47762863 49.4469928 -13.48245239 47.76696777 C-13.48042816 46.57220825 -13.47840393 45.37744873 -13.47631836 44.14648438 C-13.47727509 42.92948853 -13.47823181 41.71249268 -13.47921753 40.45861816 C-13.47989958 37.87947539 -13.47804358 35.30033091 -13.47387695 32.72119141 C-13.46852908 28.75744802 -13.47382115 24.79381796 -13.48022461 20.83007812 C-13.47956383 18.33137996 -13.47828268 15.83268186 -13.47631836 13.33398438 C-13.47834259 12.13922485 -13.48036682 10.94446533 -13.48245239 9.71350098 C-13.47930023 8.61566284 -13.47614807 7.51782471 -13.47290039 6.38671875 C-13.4721048 5.41488647 -13.4713092 4.4430542 -13.4704895 3.44177246 C-13.14172414 -2.25809134 -4.31990195 0.01217017 0 0 Z " fill="#544586" transform="translate(538.343505859375,620.759765625)"/>
<path d="M0 0 C1.93166016 0.01740234 1.93166016 0.01740234 3.90234375 0.03515625 C5.19269531 0.04417969 6.48304688 0.05320312 7.8125 0.0625 C8.81152344 0.07410156 9.81054688 0.08570313 10.83984375 0.09765625 C16.5808934 10.58728686 21.8408343 21.23544688 26.83984375 32.09765625 C29.16444192 29.16233677 30.9424645 26.17976239 32.65234375 22.8515625 C33.17054688 21.84931641 33.68875 20.84707031 34.22265625 19.81445312 C34.75632812 18.77353516 35.29 17.73261719 35.83984375 16.66015625 C36.90092361 14.5982269 37.96337777 12.53700408 39.02734375 10.4765625 C39.49527344 9.56463135 39.96320313 8.6527002 40.4453125 7.71313477 C40.90550781 6.85002686 41.36570312 5.98691895 41.83984375 5.09765625 C42.32437012 4.17251221 42.80889648 3.24736816 43.30810547 2.29418945 C43.8135791 1.5693335 44.31905273 0.84447754 44.83984375 0.09765625 C48.16015625 -0.42578125 48.16015625 -0.42578125 51.96484375 -0.27734375 C53.22554688 -0.24382813 54.48625 -0.2103125 55.78515625 -0.17578125 C58.83984375 0.09765625 58.83984375 0.09765625 59.83984375 1.09765625 C60.07258059 3.69524419 60.24446835 6.27164055 60.375 8.875 C60.43946571 10.07401695 60.43946571 10.07401695 60.50523376 11.29725647 C60.59574152 13.00460845 60.6838439 14.71208932 60.76977539 16.41967773 C60.89882605 18.96575456 61.03763167 21.51115125 61.17773438 24.05664062 C61.76171344 35.07969892 61.95239372 46.06025624 61.83984375 57.09765625 C57.21984375 57.09765625 52.59984375 57.09765625 47.83984375 57.09765625 C47.17984375 46.53765625 46.51984375 35.97765625 45.83984375 25.09765625 C41.60438156 33.60816635 41.60438156 33.60816635 37.37329102 42.12084961 C36.84791748 43.17409424 36.32254395 44.22733887 35.78125 45.3125 C34.97216187 46.93853149 34.97216187 46.93853149 34.14672852 48.59741211 C32.83984375 51.09765625 32.83984375 51.09765625 31.83984375 52.09765625 C28.86984375 52.09765625 25.89984375 52.09765625 22.83984375 52.09765625 C18.54984375 43.51765625 14.25984375 34.93765625 9.83984375 26.09765625 C9.77925781 28.25167969 9.71867187 30.40570312 9.65625 32.625 C9.59450134 34.70340635 9.53109684 36.781756 9.4675293 38.86010742 C9.42412745 40.30829865 9.38245631 41.75654279 9.3425293 43.20483398 C9.28495313 45.28255184 9.22122347 47.36000198 9.15625 49.4375 C9.10126343 51.31489868 9.10126343 51.31489868 9.04516602 53.23022461 C8.83984375 56.09765625 8.83984375 56.09765625 7.83984375 57.09765625 C5.4867082 57.17037366 3.13150707 57.18136493 0.77734375 57.16015625 C-0.51300781 57.15113281 -1.80335938 57.14210938 -3.1328125 57.1328125 C-4.13183594 57.12121094 -5.13085938 57.10960937 -6.16015625 57.09765625 C-6.18964116 53.95184323 -6.20711541 50.80606662 -6.22265625 47.66015625 C-6.23522461 46.34241211 -6.23522461 46.34241211 -6.24804688 44.99804688 C-6.26601543 40.12856761 -6.01586088 35.43735118 -5.41186523 30.60913086 C-4.73824818 23.88798768 -4.74429918 17.09252144 -4.5546875 10.34375 C-4.51730469 9.16941406 -4.47992188 7.99507812 -4.44140625 6.78515625 C-4.41111328 5.71652344 -4.38082031 4.64789062 -4.34960938 3.546875 C-4.06397502 -0.14575884 -3.7990904 0.11740082 0 0 Z " fill="#554685" transform="translate(312.16015625,620.90234375)"/>
<path d="M0 0 C2.62657955 1.65729187 3.61293461 2.32184466 5 5 C5.48219804 9.4712561 5.14711968 13.83726267 4.8125 18.3125 C4.74224609 19.53001953 4.67199219 20.74753906 4.59960938 22.00195312 C4.42304524 25.00354345 4.22240375 28.00151519 4 31 C5.50046875 30.02546875 5.50046875 30.02546875 7.03125 29.03125 C12.96760351 25.65099237 19.3763318 26.25028811 26 27 C29.20138308 28.11897872 31.57149125 29.57149125 34 32 C34.02730656 29.18742399 34.04817643 26.37515332 34.0625 23.5625 C34.06797852 22.73661377 34.07345703 21.91072754 34.07910156 21.05981445 C34.0840837 16.85281625 33.95276269 12.84728722 33.25 8.6875 C33 5 33 5 34.5 1.9375 C37 0 37 0 40.4375 -0.625 C43.84447356 -0.02728534 45.61924619 0.5222756 47.97885132 3.05648804 C50.44589955 7.75192351 49.58993694 13.67766121 49.48828125 18.83203125 C49.47894812 20.1925069 49.47183436 21.55299942 49.46684265 22.91349792 C49.44781131 26.48301117 49.3987468 30.05149653 49.34332275 33.62060547 C49.29204504 37.26711117 49.26931062 40.91378405 49.24414062 44.56054688 C49.19062213 51.7074501 49.10535818 58.85365771 49 66 C47.23244474 66.84026396 45.46082737 67.67198722 43.6875 68.5 C42.70136719 68.9640625 41.71523438 69.428125 40.69921875 69.90625 C38 71 38 71 35 71 C34.97494385 70.16750732 34.9498877 69.33501465 34.92407227 68.47729492 C34.82887306 65.38537167 34.72964328 62.29361148 34.62768555 59.2019043 C34.56312994 57.20696681 34.5032217 55.21188071 34.44335938 53.21679688 C34.40146484 51.96318359 34.35957031 50.70957031 34.31640625 49.41796875 C34.26141968 47.68196411 34.26141968 47.68196411 34.20532227 45.91088867 C34.11671491 42.9356554 34.11671491 42.9356554 33 40 C31.25132517 38.91568906 31.25132517 38.91568906 29 38 C28.13375 37.46375 27.2675 36.9275 26.375 36.375 C21.82227738 34.52018708 17.85406567 34.27504214 13 35 C9.14455202 36.99657127 7.40194908 38.39707638 5 42 C4.34 42 3.68 42 3 42 C3 51.57 3 61.14 3 71 C-3.71593282 70.04058103 -5.7015567 69.35207637 -11 66 C-11.1158896 57.98538021 -11.20471166 49.97111087 -11.25906086 41.95586014 C-11.28514706 38.2339441 -11.32052492 34.51260157 -11.37719727 30.79101562 C-11.43155547 27.19888431 -11.4614279 23.60730428 -11.47438622 20.0147934 C-11.48361959 18.64479645 -11.50165106 17.27482944 -11.52865028 15.90506744 C-11.56497896 13.98551401 -11.56704269 12.06540489 -11.56762695 10.14550781 C-11.57873001 9.05296692 -11.58983307 7.96042603 -11.60127258 6.83477783 C-11 4 -11 4 -8.65202332 1.65106201 C-5.37156335 -0.39124388 -3.79721624 -0.71197805 0 0 Z " fill="#82D9F8" transform="translate(751,455)"/>
<path d="M0 0 C0.76166977 0.00222061 1.52333954 0.00444122 2.30809021 0.00672913 C3.16890701 0.00680466 4.02972382 0.00688019 4.91662598 0.00695801 C5.8520372 0.01211929 6.78744843 0.01728058 7.75120544 0.02259827 C8.70422043 0.02401321 9.65723541 0.02542816 10.63912964 0.02688599 C13.69605085 0.032503 16.75289996 0.04505836 19.80979919 0.05775452 C21.87685543 0.06276733 23.94391281 0.06733061 26.01097107 0.07142639 C31.08977507 0.08247795 36.16852489 0.09975397 41.24729919 0.12025452 C41.27417199 1.93267503 41.29363635 3.74520685 41.30979919 5.55775452 C41.32140076 6.56709045 41.33300232 7.57642639 41.34495544 8.61634827 C41.24729919 11.12025452 41.24729919 11.12025452 40.24729919 12.12025452 C38.17467843 12.20792564 36.09909625 12.22721325 34.02464294 12.21791077 C32.76458435 12.21468811 31.50452576 12.21146545 30.20628357 12.20814514 C28.86578811 12.19978855 27.52529332 12.19132359 26.18479919 12.18275452 C24.84039978 12.17774112 23.4959986 12.17317793 22.15159607 12.16908264 C18.85014486 12.15724948 15.54871659 12.13931337 12.24729919 12.12025452 C12.24729919 16.41025452 12.24729919 20.70025452 12.24729919 25.12025452 C20.49729919 25.12025452 28.74729919 25.12025452 37.24729919 25.12025452 C37.24729919 29.08025452 37.24729919 33.04025452 37.24729919 37.12025452 C28.99729919 37.12025452 20.74729919 37.12025452 12.24729919 37.12025452 C12.24729919 43.72025452 12.24729919 50.32025452 12.24729919 57.12025452 C7.29729919 57.12025452 2.34729919 57.12025452 -2.75270081 57.12025452 C-2.77525687 49.83603474 -2.79361881 42.55183392 -2.80451298 35.26758671 C-2.80974055 31.88553639 -2.81683591 28.50351112 -2.82814026 25.12147522 C-2.84104347 21.23695674 -2.84593004 17.35244855 -2.85035706 13.46791077 C-2.85551834 12.24814041 -2.86067963 11.02837006 -2.86599731 9.77163696 C-2.86607285 8.65055038 -2.86614838 7.52946381 -2.8662262 6.37440491 C-2.86844681 5.38179153 -2.87066742 4.38917816 -2.87295532 3.3664856 C-2.72884477 0.67464825 -2.69886712 0.18517191 0 0 Z " fill="#554685" transform="translate(621.7527008056641,620.8797454833984)"/>
<path d="M0 0 C1.73200905 -0.00956978 1.73200905 -0.00956978 3.49900818 -0.01933289 C4.75625198 -0.02044571 6.01349579 -0.02155853 7.30883789 -0.02270508 C8.5900502 -0.02603348 9.87126251 -0.02936188 11.19129944 -0.03279114 C13.90748944 -0.03878825 16.62364759 -0.04063045 19.33984375 -0.04003906 C22.82490006 -0.03993742 26.30975269 -0.05358849 29.7947607 -0.07081127 C33.11195647 -0.08458699 36.42911384 -0.08401957 39.74633789 -0.08520508 C41.00155746 -0.09239059 42.25677704 -0.09957611 43.55003357 -0.10697937 C45.28677086 -0.10236443 45.28677086 -0.10236443 47.05859375 -0.09765625 C48.59295326 -0.09979378 48.59295326 -0.09979378 50.15830994 -0.10197449 C52.59399414 0.14526367 52.59399414 0.14526367 54.59399414 2.14526367 C54.59399414 9.47395871 50.87734679 15.84784955 45.76977539 20.97729492 C38.16135575 27.07329037 29.80593047 30.06191035 20.03930664 29.71557617 C11.53402984 28.30767321 3.79149292 24.2674769 -1.65600586 17.52026367 C-5.41717989 12.14992756 -6.78627352 7.73656984 -6.40600586 1.14526367 C-4.67785104 -0.58289115 -2.35504347 0.00878276 0 0 Z " fill="#54467E" transform="translate(237.406005859375,474.854736328125)"/>
<path d="M0 0 C12.36525749 -1.20473415 12.36525749 -1.20473415 15.796875 1.32421875 C17.11767133 3.48182098 18.03608258 5.65955302 19 8 C19.93480587 9.70850691 20.87034887 11.41670211 21.82446289 13.11450195 C26 20.55453113 26 20.55453113 26 23 C26.66 23 27.32 23 28 23 C28.23589844 22.18144531 28.47179687 21.36289062 28.71484375 20.51953125 C30.2582197 16.29283905 32.32207614 12.57727222 34.5625 8.6875 C34.97435547 7.95982422 35.38621094 7.23214844 35.81054688 6.48242188 C38.84302286 1.15697714 38.84302286 1.15697714 40 0 C42.53049402 -0.07313567 45.03304837 -0.09247527 47.5625 -0.0625 C48.62887695 -0.05573242 48.62887695 -0.05573242 49.71679688 -0.04882812 C51.47790013 -0.03700864 53.23896036 -0.01907263 55 0 C54.41019386 4.06203717 53.0999026 6.93545782 51.015625 10.45703125 C50.10683594 12.00293945 50.10683594 12.00293945 49.1796875 13.58007812 C48.54289063 14.64677734 47.90609375 15.71347656 47.25 16.8125 C46.62867188 17.86759766 46.00734375 18.92269531 45.3671875 20.00976562 C44.45066406 21.56147461 44.45066406 21.56147461 43.515625 23.14453125 C42.91838623 24.15660645 42.32114746 25.16868164 41.70581055 26.21142578 C40.67420487 27.89784341 39.60238684 29.56171448 38.46020508 31.17529297 C34.68869264 36.51798734 34.22976918 41.03751221 34.1875 47.5 C34.16236328 48.4178125 34.13722656 49.335625 34.11132812 50.28125 C34.05299439 52.52126551 34.01632472 54.75935187 34 57 C31.68756208 57.02685412 29.3750373 57.04632841 27.0625 57.0625 C25.77472656 57.07410156 24.48695313 57.08570313 23.16015625 57.09765625 C20 57 20 57 19 56 C19.03840344 53.92194715 19.07702225 51.84389807 19.11669922 49.76586914 C19.15598818 37.26620251 15.19838405 29.38484877 8.39501953 19.140625 C6.36669377 16.02820634 4.58675822 12.82684367 2.8125 9.5625 C2.26207031 8.57378906 1.71164062 7.58507812 1.14453125 6.56640625 C0 4 0 4 0 0 Z " fill="#584787" transform="translate(666,621)"/>
<path d="M0 0 C4.75135803 1.70331703 7.6040548 4.31297379 11 8 C11.495 8.495 11.495 8.495 12 9 C12.08767112 11.07262076 12.10695873 13.14820294 12.09765625 15.22265625 C12.09443359 16.48271484 12.09121094 17.74277344 12.08789062 19.04101562 C12.07953403 20.38151109 12.07106907 21.72200588 12.0625 23.0625 C12.0574866 24.40689942 12.05292342 25.7513006 12.04882812 27.09570312 C12.03699488 30.39717941 12.02050971 33.69856803 12 37 C5.80957377 39.06574796 0.80654218 40.19355965 -5.75 40.1875 C-6.81927734 40.1884668 -6.81927734 40.1884668 -7.91015625 40.18945312 C-12.94542014 40.13882433 -17.2405038 39.58649873 -22 38 C-21.01 37.505 -21.01 37.505 -20 37 C-20 27.43 -20 17.86 -20 8 C-19.34 8 -18.68 8 -18 8 C-17.79375 7.4225 -17.5875 6.845 -17.375 6.25 C-13.29504498 -0.42629003 -7.12055471 -0.95250487 0 0 Z " fill="#CDC3FA" transform="translate(774,489)"/>
<path d="M0 0 C3.40697356 0.59771466 5.18174619 1.1472756 7.54135132 3.68148804 C10.00839955 8.37692351 9.15243694 14.30266121 9.05078125 19.45703125 C9.04144812 20.8175069 9.03433436 22.17799942 9.02934265 23.53849792 C9.01031131 27.10801117 8.9612468 30.67649653 8.90582275 34.24560547 C8.85454504 37.89211117 8.83181062 41.53878405 8.80664062 45.18554688 C8.75312213 52.3324501 8.66785818 59.47865771 8.5625 66.625 C6.79494474 67.46526396 5.02332737 68.29698722 3.25 69.125 C1.77080078 69.82109375 1.77080078 69.82109375 0.26171875 70.53125 C-2.4375 71.625 -2.4375 71.625 -5.4375 71.625 C-5.44780746 70.93088516 -5.45811493 70.23677032 -5.46873474 69.5216217 C-5.56714462 62.94623549 -5.66971636 56.37092848 -5.77683926 49.79567814 C-5.8317546 46.41614294 -5.88512025 43.03659875 -5.93481445 39.65698242 C-5.99288236 35.7621316 -6.05647021 31.86740315 -6.12109375 27.97265625 C-6.13780624 26.7723024 -6.15451874 25.57194855 -6.17173767 24.33522034 C-6.25913524 19.33767262 -6.39968687 14.44086174 -7.05102539 9.48217773 C-7.4375 5.625 -7.4375 5.625 -5.9375 2.5625 C-3.4375 0.625 -3.4375 0.625 0 0 Z " fill="#84DCF9" transform="translate(791.4375,454.375)"/>
<path d="M0 0 C4.62 0 9.24 0 14 0 C15.69295345 1.69295345 15.12749729 3.82896484 15.12939453 6.14648438 C15.13254669 7.24432251 15.13569885 8.34216064 15.13894653 9.4732666 C15.1369223 10.66802612 15.13489807 11.86278564 15.1328125 13.09375 C15.13376923 14.31074585 15.13472595 15.5277417 15.13571167 16.78161621 C15.13639372 19.36075899 15.13453772 21.93990347 15.13037109 24.51904297 C15.12502322 28.48278636 15.13031529 32.44641642 15.13671875 36.41015625 C15.13605797 38.90885442 15.13477682 41.40755252 15.1328125 43.90625 C15.13483673 45.10100952 15.13686096 46.29576904 15.13894653 47.5267334 C15.13579437 48.62457153 15.13264221 49.72240967 15.12939453 50.85351562 C15.12820114 52.31126404 15.12820114 52.31126404 15.12698364 53.79846191 C15 56 15 56 14 57 C9.38 57 4.76 57 0 57 C0 38.19 0 19.38 0 0 Z " fill="#564786" transform="translate(591,621)"/>
<path d="M0 0 C4.03654111 1.9828623 6.6500056 4.16579861 9 8 C10.87781006 13.63343018 10.71300253 19.73516842 8.9375 25.375 C5.72954076 29.72126735 2.7783504 32.53626953 -2.69140625 33.44921875 C-7.18388739 33.62647311 -10.3164867 33.31068786 -14.4375 31.4375 C-19.37475852 26.74108336 -21.22700225 23.17342802 -21.4375 16.4375 C-21.17550832 10.25956721 -19.55982148 6.83978944 -15.5625 2.125 C-11.05491753 -1.36583455 -5.37755296 -0.80405113 0 0 Z " fill="#F9F9FA" transform="translate(489,633)"/>
<path d="M0 0 C4.1463538 2.93278683 6.58181116 5.82578974 7.5625 10.8125 C8.2994706 17.23985014 7.55518936 22.57947815 3.5625 27.8125 C0.10793776 30.98962331 -3.35502864 32.05450457 -8 32.25 C-13.45858636 31.9715007 -17.00834251 30.35753512 -20.75 26.3125 C-24.52099809 20.72583616 -24.01359424 14.31756411 -23.4375 7.8125 C-18.86045079 -2.01967979 -9.65743323 -3.33620421 0 0 Z " fill="#F8F8F9" transform="translate(422.4375,634.1875)"/>
<path d="M0 0 C0.66 0 1.32 0 2 0 C2.51046875 1.17755859 2.51046875 1.17755859 3.03125 2.37890625 C8.05320028 13.26425062 13.78827324 18.82155554 25 23 C24.505 24.485 24.505 24.485 24 26 C22.08863421 26.67065466 20.17674901 27.33988185 18.26171875 28 C10.28756833 31.52570381 6.03833245 38.20991875 2.75 45.9375 C2.5025 46.618125 2.255 47.29875 2 48 C1.34 48 0.68 48 0 48 C-0.3403125 47.21496094 -0.680625 46.42992187 -1.03125 45.62109375 C-6.05320028 34.73574938 -11.78827324 29.17844446 -23 25 C-23 24.34 -23 23.68 -23 23 C-22.21496094 22.6596875 -21.42992187 22.319375 -20.62109375 21.96875 C-9.73574938 16.94679972 -4.17844446 11.21172676 0 0 Z " fill="#F2DEE7" transform="translate(967,944)"/>
<path d="M0 0 C15.88050314 0 15.88050314 0 21 4 C24.74407512 7.74407512 25.29712053 10.87729347 25.5 16 C25.31630179 21.11821229 24.56996587 24.14057744 21 28 C16 32 16 32 0 32 C0 21.44 0 10.88 0 0 Z " fill="#F9F9FA" transform="translate(540,633)"/>
<path d="M0 0 C1.98 0 3.96 0 6 0 C6.27972656 0.65226562 6.55945313 1.30453125 6.84765625 1.9765625 C10.3619396 9.63792621 14.03936351 13.79964639 21.375 17.875 C28.70805255 20.15077493 34.69780027 19.42132081 41.70703125 16.32421875 C48.08812111 12.63905782 51.03647149 6.49696634 54 0 C56.375 -0.125 56.375 -0.125 59 0 C59.66 0.66 60.32 1.32 61 2 C60.40423025 8.42348113 56.64674127 14.51868006 52 18.875 C50.04903712 20.35300218 48.07468123 21.70278731 46 23 C45.0925 23.598125 44.185 24.19625 43.25 24.8125 C36.46503631 28.39345306 27.49127423 27.97528362 20.17578125 26.38671875 C11.10752847 23.15517498 4.07282215 16.67241767 -0.26953125 8.12109375 C-1.29348798 5.14778623 -0.98263245 2.94789735 0 0 Z " fill="#5A4882" transform="translate(358,454)"/>
<path d="M0 0 C6.96343653 2.82399333 13.163764 8.44418571 16.25390625 15.3515625 C16.56640625 18.0390625 16.56640625 18.0390625 16.25390625 20.3515625 C14.25390625 22.3515625 14.25390625 22.3515625 11.87890625 22.4765625 C8.77373617 21.14577532 8.68031436 20.5746069 7.37890625 17.6015625 C5.36847034 13.04947794 2.66522422 10.6055912 -1.74609375 8.3515625 C-7.15214034 6.64724661 -12.68354322 6.59793827 -17.99609375 8.5390625 C-23.62125202 12.24655318 -26.65621629 16.5151273 -29.74609375 22.3515625 C-31.4122128 22.3942835 -33.0799226 22.39220082 -34.74609375 22.3515625 C-35.07609375 22.0215625 -35.40609375 21.6915625 -35.74609375 21.3515625 C-35.61474245 14.91534872 -33.21822785 10.91609606 -28.74609375 6.3515625 C-19.80316984 -0.58070402 -11.22613948 -2.65083806 0 0 Z " fill="#594985" transform="translate(652.74609375,460.6484375)"/>
<path d="M0 0 C1.40166664 -0.00956978 1.40166664 -0.00956978 2.83164978 -0.01933289 C3.84828201 -0.02044571 4.86491425 -0.02155853 5.91235352 -0.02270508 C6.94940933 -0.02603348 7.98646515 -0.02936188 9.0549469 -0.03279114 C11.25326085 -0.03786493 13.45158254 -0.04019932 15.64990234 -0.04003906 C19.02332177 -0.04222471 22.39641394 -0.06037347 25.76977539 -0.0793457 C27.90063364 -0.08227962 30.03149345 -0.08426443 32.16235352 -0.08520508 C33.17696152 -0.09239059 34.19156952 -0.09957611 35.23692322 -0.10697937 C36.17451981 -0.10390274 37.11211639 -0.10082611 38.078125 -0.09765625 C38.90561752 -0.09908127 39.73311005 -0.10050629 40.5856781 -0.10197449 C42.60375977 0.14526367 42.60375977 0.14526367 44.60375977 2.14526367 C44.79125977 4.70776367 44.79125977 4.70776367 44.60375977 7.14526367 C43.00640755 8.74261589 41.32801593 8.28054132 39.11572266 8.29052734 C38.16125748 8.2969072 37.2067923 8.30328705 36.22340393 8.30986023 C34.66564491 8.31152946 34.66564491 8.31152946 33.07641602 8.31323242 C32.01716415 8.31656082 30.95791229 8.31988922 29.86656189 8.32331848 C27.62116939 8.32839236 25.37576932 8.33072667 23.13037109 8.33056641 C19.68452598 8.33275209 16.23900124 8.35090088 12.79321289 8.36987305 C10.6167817 8.37280696 8.44034898 8.37479177 6.26391602 8.37573242 C5.22743423 8.38291794 4.19095245 8.39010345 3.12306213 8.39750671 C2.16544479 8.39443008 1.20782745 8.39135345 0.22119141 8.38818359 C-0.62406601 8.38960861 -1.46932343 8.39103363 -2.3401947 8.39250183 C-4.39624023 8.14526367 -4.39624023 8.14526367 -6.39624023 6.14526367 C-5.7514374 0.85788039 -5.21120758 0.02402824 0 0 Z " fill="#5B508B" transform="translate(496.396240234375,449.854736328125)"/>
<path d="M0 0 C2.52000966 1.41120541 4.50596502 3.12705877 6.54296875 5.1640625 C6.73828125 7.546875 6.73828125 7.546875 6.66796875 10.2890625 C6.64992188 11.19914062 6.631875 12.10921875 6.61328125 13.046875 C6.59007812 13.74554688 6.566875 14.44421875 6.54296875 15.1640625 C5.88296875 14.8340625 5.22296875 14.5040625 4.54296875 14.1640625 C4.54296875 13.5040625 4.54296875 12.8440625 4.54296875 12.1640625 C4.00671875 11.8959375 3.47046875 11.6278125 2.91796875 11.3515625 C0.54296875 10.1640625 0.54296875 10.1640625 -2.08203125 8.5390625 C-6.63017977 6.6861131 -10.60727911 6.43068535 -15.45703125 7.1640625 C-18.87926656 8.88816366 -18.87926656 8.88816366 -21.45703125 11.1640625 C-22.44703125 11.8240625 -23.43703125 12.4840625 -24.45703125 13.1640625 C-24.45703125 9.8640625 -24.45703125 6.5640625 -24.45703125 3.1640625 C-17.62826349 -2.16570746 -8.16719834 -2.77866526 0 0 Z " fill="#5D4D8A" transform="translate(779.45703125,482.8359375)"/>
<path d="M0 0 C3.71317907 1.14770989 5.2692056 1.85342428 7.4375 5.0625 C8 8 8 8 7.4375 11.0625 C4.98155875 14.38524404 3.5118356 15.83868008 -0.5625 16.6875 C-4.6368356 15.83868008 -6.10655875 14.38524404 -8.5625 11.0625 C-9.1875 8.0625 -9.1875 8.0625 -8.5625 5.0625 C-5.88937913 1.25532785 -4.71546409 0.08272744 0 0 Z " fill="#56477B" transform="translate(282.5625,443.9375)"/>
<path d="M0 0 C3.71317907 1.14770989 5.2692056 1.85342428 7.4375 5.0625 C8 8 8 8 7.4375 11.0625 C4.98155875 14.38524404 3.5118356 15.83868008 -0.5625 16.6875 C-4.6368356 15.83868008 -6.10655875 14.38524404 -8.5625 11.0625 C-9.1875 8.0625 -9.1875 8.0625 -8.5625 5.0625 C-5.88937913 1.25532785 -4.71546409 0.08272744 0 0 Z " fill="#59497E" transform="translate(240.5625,443.9375)"/>
<path d="M0 0 C2.9375 1.5625 2.9375 1.5625 5 4 C5.80740332 8.44071826 5.50331836 10.26790056 2.9375 14 C0 16 0 16 -3.625 16 C-6.95178974 15.01428452 -7.97264502 14.65486962 -10 12 C-10.3984375 9.84375 -10.3984375 9.84375 -10.375 7.5 C-10.38273438 6.7265625 -10.39046875 5.953125 -10.3984375 5.15625 C-9.33374328 -0.60562461 -5.09532912 -0.61495351 0 0 Z " fill="#5A4B83" transform="translate(667,428)"/>
<path d="M0 0 C3.07076729 2.2867416 4.71291608 3.72407146 5.5625 7.5 C4.76900145 11.02666021 3.73080856 12.61054251 1 15 C-1.79985585 15.6655395 -4.19322499 15.60966834 -7 15 C-9.5 13.4375 -9.5 13.4375 -11 11 C-11.56288002 7.05983987 -11.60396028 4.94217804 -9.4375 1.5625 C-6.01685857 -0.63021887 -3.99048721 -0.63007693 0 0 Z " fill="#584882" transform="translate(625,428)"/>
<path d="M0 0 C2.4375 0.9375 2.4375 0.9375 4 3 C4.79851043 7.346531 4.7665182 10.79125976 2.375 14.5625 C-0.79516453 16.4812838 -2.35589151 16.74369561 -6 16 C-9.67693404 12.79246179 -9.67693404 12.79246179 -11 10 C-11 6.42896064 -10.66890244 4.15199865 -8.875 1.0625 C-5.85228899 -0.65036957 -3.39414695 -0.35727863 0 0 Z " fill="#5D4B8A" transform="translate(795,455)"/>
<path d="M0 0 C1.91015625 0.44921875 1.91015625 0.44921875 4.47265625 2.57421875 C5.91015625 5.44921875 5.91015625 5.44921875 5.91015625 8.51171875 C4.75451113 11.9064263 3.84523568 13.3867305 0.91015625 15.44921875 C-2.02734375 16.01171875 -2.02734375 16.01171875 -5.08984375 15.44921875 C-8.45328864 12.96319426 -9.89042124 11.53496352 -10.65234375 7.38671875 C-10.08984375 4.44921875 -10.08984375 4.44921875 -8.58984375 2.07421875 C-5.55617063 0.10233122 -3.57032574 -0.19353168 0 0 Z " fill="#5B4C83" transform="translate(369.08984375,423.55078125)"/>
<path d="M0 0 C2.89360359 0.45994906 4.16049393 0.93404399 5.94140625 3.30859375 C6.5029422 7.73068936 6.74033687 10.03030476 4.37890625 13.80859375 C1.03106276 15.86880513 -1.19873622 15.79984834 -5.05859375 15.30859375 C-7.16217756 13.76596562 -7.89913534 12.62751058 -9.05859375 10.30859375 C-9.33615959 7.11658654 -9.30823973 4.90150295 -8.05859375 1.93359375 C-5.45483226 -0.18196246 -3.29027397 -0.1999614 0 0 Z " fill="#574683" transform="translate(538.05859375,412.69140625)"/>
<path d="M0 0 C2.375 1.5 2.375 1.5 4 4 C4.6293407 7.51440821 4.63147635 10.7370473 3 14 C-0.27707545 15.63853772 -3.48247891 15.75021577 -7 15 C-10.0185754 12.43421091 -10.8495663 10.8190279 -11.5625 6.9375 C-11 4 -11 4 -8.875 1.625 C-5.50335677 -0.28071139 -3.80994895 -0.64850195 0 0 Z " fill="#564484" transform="translate(751,455)"/>
<path d="M0 0 C2.4375 1.5625 2.4375 1.5625 4 4 C4.45310904 7.62487235 4.38885542 10.05216491 3 13.4375 C0.28360359 15.5596847 -1.75236008 15.49930968 -5.12890625 15.33203125 C-7 15 -7 15 -8.9375 13.625 C-11.12556871 10.27854198 -11.40075527 8.00755272 -11 4 C-8.05899778 -0.47032338 -5.13105401 -0.73300772 0 0 Z " fill="#584585" transform="translate(498,413)"/>
<path d="M0 0 C2.4375 1.625 2.4375 1.625 4 4 C4.5625 6.9375 4.5625 6.9375 4 10 C1.9375 12.9375 1.9375 12.9375 -1 15 C-4.85210127 15.06641554 -6.99848005 14.87229157 -9.9375 12.3125 C-11.33817538 9.26397123 -11.4842732 7.32073048 -11 4 C-8.05899778 -0.47032338 -5.13105401 -0.73300772 0 0 Z " fill="#584882" transform="translate(412,424)"/>
<path d="M0 0 C2.475 0.495 2.475 0.495 5 1 C4.93233783 4.38310867 4.81461728 7.02335939 2.5859375 9.6953125 C-1.8711093 13.60259142 -6.30884963 16.85049165 -12.375 17.1875 C-13.24125 17.125625 -14.1075 17.06375 -15 17 C-15.625 14.625 -15.625 14.625 -16 12 C-13.7892223 9.7892223 -11.66333787 9.02753312 -8.8125 7.8515625 C-4.8814615 6.00465217 -2.382047 3.5730705 0 0 Z " fill="#5F4F8D" transform="translate(750,439)"/>
<path d="M0 0 C2.25 -0.3125 2.25 -0.3125 5 0 C7 2.3125 7 2.3125 9 5 C12.46299796 7.46055118 15.94602482 8.7743796 20 10 C20.33 11.65 20.66 13.3 21 15 C15.02778302 16.68780045 11.62682793 15.42994831 6.24609375 12.45703125 C3.39589277 10.60811826 1.6143992 9.00865306 0 6 C-0.25 2.6875 -0.25 2.6875 0 0 Z " fill="#604F8D" transform="translate(786,440)"/>
<path d="M0 0 C0.33 0 0.66 0 1 0 C1 6.27 1 12.54 1 19 C-0.65 18.01 -2.3 17.02 -4 16 C-3.38722388 13.03824877 -2.74627478 11.61941217 -1 9 C-0.54605448 6.72087062 -0.54605448 6.72087062 -0.375 4.3125 C-0.30023437 3.50425781 -0.22546875 2.69601562 -0.1484375 1.86328125 C-0.09945312 1.24839844 -0.05046875 0.63351562 0 0 Z " fill="#CCCFF6" transform="translate(785,469)"/>
<path d="M0 0 C2.31243792 -0.02685412 4.6249627 -0.04632841 6.9375 -0.0625 C8.22527344 -0.07410156 9.51304687 -0.08570313 10.83984375 -0.09765625 C14 0 14 0 15 1 C15.07244053 3.01964199 15.08377188 5.04167124 15.0625 7.0625 C15.05347656 8.16722656 15.04445313 9.27195312 15.03515625 10.41015625 C15.02355469 11.26480469 15.01195312 12.11945312 15 13 C14.67 13 14.34 13 14 13 C13.67 9.37 13.34 5.74 13 2 C11.2675 1.938125 9.535 1.87625 7.75 1.8125 C6.77546875 1.77769531 5.8009375 1.74289062 4.796875 1.70703125 C1.62531258 2.03924798 0.32959693 2.88672279 -2 5 C-1.34 3.35 -0.68 1.7 0 0 Z " fill="#7B6CA1" transform="translate(357,621)"/>
<path d="M0 0 C2.8290723 2.8290723 3.37611108 3.38144425 4 7 C3.01 7 2.02 7 1 7 C1 11.29 1 15.58 1 20 C0.67 20 0.34 20 0 20 C0 13.4 0 6.8 0 0 Z " fill="#E2E2E9" transform="translate(321,646)"/>
<path d="M0 0 C0.33 0.99 0.66 1.98 1 3 C-0.21484375 4.82421875 -0.21484375 4.82421875 -1.9375 6.6875 C-2.50339844 7.31011719 -3.06929688 7.93273437 -3.65234375 8.57421875 C-4.09707031 9.04472656 -4.54179687 9.51523437 -5 10 C-5.66 9.67 -6.32 9.34 -7 9 C-6.21448343 7.68381002 -5.4213763 6.37214772 -4.625 5.0625 C-4.18414062 4.33160156 -3.74328125 3.60070312 -3.2890625 2.84765625 C-2 1 -2 1 0 0 Z " fill="#EDDB97" transform="translate(292,483)"/>
<path d="M0 0 C0.66 0.33 1.32 0.66 2 1 C-1.35629254 4.70958649 -5.53909402 6.85215638 -10 9 C-6.99482576 5.13620455 -4.54918935 2.09016808 0 0 Z " fill="#6C598D" transform="translate(631,462)"/>
<path d="M0 0 C0 0.33 0 0.66 0 1 C-1.11375 1.309375 -2.2275 1.61875 -3.375 1.9375 C-6.7945155 2.82326483 -6.7945155 2.82326483 -9 4 C-10.67654729 3.72057545 -12.34608154 3.39171753 -14 3 C-14 2.67 -14 2.34 -14 2 C-4.58997722 -1.62870159 -4.58997722 -1.62870159 0 0 Z " fill="#A79FDF" transform="translate(750,454)"/>
<path d="M0 0 C1.65 0.33 3.3 0.66 5 1 C4 3 4 3 1.625 4.125 C-1 5 -1 5 -4 5 C-2.68 3.35 -1.36 1.7 0 0 Z " fill="#7264A3" transform="translate(750,439)"/>
<path d="M0 0 C0.66 0.66 1.32 1.32 2 2 C1.01 3.32 0.02 4.64 -1 6 C-2.32 5.34 -3.64 4.68 -5 4 C-3.35 2.68 -1.7 1.36 0 0 Z " fill="#BDB4F3" transform="translate(751,449)"/>
<path d="M0 0 C-1.36983503 3.16115776 -1.9890638 3.9927092 -5 6 C-5.99 5.67 -6.98 5.34 -8 5 C-2.25 0 -2.25 0 0 0 Z " fill="#D7D1F9" transform="translate(748,441)"/>
<path d="M0 0 C0.33 0 0.66 0 1 0 C1 2.64 1 5.28 1 8 C0.34 7.34 -0.32 6.68 -1 6 C-1.99 6.495 -1.99 6.495 -3 7 C-1.125 1.125 -1.125 1.125 0 0 Z " fill="#E2E0EA" transform="translate(358,645)"/>
</svg>
